<?xml version="1.0" standalone="no"?>
<!DOCTYPE svg PUBLIC "-//W3C//DTD SVG 20010904//EN"
 "http://www.w3.org/TR/2001/REC-SVG-20010904/DTD/svg10.dtd">
<svg version="1.0" xmlns="http://www.w3.org/2000/svg"
 width="1920.000000pt" height="1964.000000pt" viewBox="0 0 1920.000000 1964.000000"
 preserveAspectRatio="xMidYMid meet">

<g transform="translate(0.000000,1964.000000) scale(0.100000,-0.100000)"
fill="currentColor" stroke="none">
<path d="M9090 19120 c-1783 -126 -3366 -784 -4705 -1959 -155 -135 -561 -541
-696 -696 -849 -968 -1423 -2055 -1730 -3276 -112 -447 -181 -888 -221 -1399
-16 -211 -16 -855 0 -1070 52 -678 163 -1265 358 -1880 474 -1492 1413 -2829
2673 -3805 83 -64 171 -140 196 -168 58 -67 110 -166 137 -264 22 -77 22 -90
26 -921 l3 -842 1197 2 1197 3 3 800 c3 807 -3 1012 -34 1220 -78 524 -278
1003 -591 1418 -166 221 -352 408 -587 589 -549 425 -950 851 -1301 1383 -446
674 -743 1476 -845 2280 -34 269 -43 425 -43 720 0 488 46 874 159 1333 417
1697 1664 3118 3304 3765 478 188 957 303 1500 357 173 18 676 24 865 11 1079
-76 2068 -446 2930 -1098 227 -172 373 -300 585 -513 396 -397 698 -803 963
-1295 811 -1503 858 -3306 127 -4877 -87 -187 -213 -419 -323 -593 -360 -571
-775 -1022 -1362 -1480 -170 -132 -418 -378 -538 -534 -390 -504 -610 -1078
-657 -1706 -5 -80 -10 -493 -10 -957 l0 -818 -551 0 c-319 0 -549 -4 -547 -9
5 -15 2261 -2326 2270 -2326 4 0 519 524 1143 1165 l1134 1165 -525 3 -525 2
3 838 c4 928 1 877 72 1027 56 117 115 185 264 302 677 527 1235 1120 1704
1808 634 931 1066 2003 1253 3110 134 794 149 1591 45 2360 -300 2205 -1499
4159 -3340 5442 -590 411 -1266 750 -1957 984 -601 202 -1168 321 -1833 385
-193 18 -991 27 -1190 14z"/>
<path d="M9725 13148 c-3 -7 -4 -708 -3 -1558 l3 -1545 233 -3 232 -2 0 1560
0 1560 -230 0 c-175 0 -232 -3 -235 -12z"/>
<path d="M10750 12485 l0 -285 -172 -2 -173 -3 -3 -207 -2 -208 175 0 175 0 0
-638 c0 -599 1 -644 19 -714 52 -200 172 -316 379 -365 65 -15 122 -18 357
-18 l280 0 0 205 0 205 -230 5 c-246 5 -254 7 -298 59 -44 53 -47 96 -47 696
l0 565 288 2 287 3 0 205 0 205 -287 3 -288 2 0 285 0 285 -230 0 -230 0 0
-285z"/>
<path d="M12800 12253 c-251 -23 -443 -99 -577 -226 -144 -137 -204 -268 -237
-519 l-5 -38 233 0 233 0 12 58 c14 72 56 146 114 199 91 84 191 117 357 117
180 1 301 -47 361 -143 36 -56 41 -147 10 -197 -48 -80 -135 -100 -456 -108
-263 -6 -371 -20 -503 -65 -111 -38 -183 -83 -263 -162 -119 -118 -172 -264
-171 -474 2 -363 185 -598 538 -692 130 -34 346 -39 464 -9 174 43 328 144
415 273 l43 64 30 -64 c53 -114 145 -184 281 -213 40 -8 127 -14 224 -14 l157
0 0 210 0 209 -117 3 c-114 3 -118 4 -130 28 -10 19 -13 149 -13 560 0 323 -4
560 -11 599 -27 166 -107 323 -212 416 -65 58 -208 129 -309 154 -132 34 -327
48 -468 34z m531 -1277 c-21 -274 -113 -440 -290 -529 -94 -47 -161 -60 -295
-55 -95 3 -120 8 -172 32 -121 55 -179 146 -179 281 0 92 20 141 79 192 66 58
130 74 336 84 268 12 375 44 474 143 l51 51 3 -34 c2 -19 -1 -94 -7 -165z"/>
<path d="M8243 12210 c-233 -24 -469 -132 -642 -295 -442 -418 -466 -1107 -53
-1555 33 -36 78 -78 101 -95 l41 -30 0 -112 0 -113 245 0 245 0 0 138 c0 150
-13 220 -56 309 -25 51 -57 87 -202 225 -241 230 -240 620 3 864 232 232 598
240 843 19 204 -185 259 -479 135 -726 -44 -88 -80 -132 -215 -256 -63 -58
-98 -111 -129 -199 -17 -48 -23 -89 -27 -216 l-4 -158 -85 0 -85 0 207 -215
207 -214 208 212 208 212 -84 3 -84 3 0 105 0 105 99 97 c211 206 324 455 338
743 18 361 -147 709 -440 930 -221 167 -503 246 -774 219z"/>
<path d="M5134 12183 c3 -10 192 -496 419 -1081 l412 -1062 233 2 233 3 415
1070 c228 588 414 1073 414 1077 0 5 -115 8 -256 8 l-255 0 -14 -32 c-7 -18
-129 -361 -270 -763 -141 -401 -260 -736 -264 -743 -5 -8 -118 301 -276 750
-148 419 -273 769 -278 776 -7 9 -72 12 -264 12 -239 0 -255 -1 -249 -17z"/>
</g>
</svg>
